ISO-10303-21;
HEADER;
FILE_DESCRIPTION(('CamProbeStepRebuild 手写方块 100x80x40'),'2;1');
FILE_NAME('probe-box-214.step','2026-09-05T00:00:00',(''),(''),'CamProbeStepRebuild','','');
FILE_SCHEMA(('AUTOMOTIVE_DESIGN { 1 0 10303 214 1 1 1 1 }'));
ENDSEC;
DATA;
/* 8 角点: p0=(0,0,0) p1=(100,0,0) p2=(100,80,0) p3=(0,80,0) p4=(0,0,40) p5=(100,0,40) p6=(100,80,40) p7=(0,80,40) */
#10=CARTESIAN_POINT('',(0.,0.,0.));
#11=CARTESIAN_POINT('',(100.,0.,0.));
#12=CARTESIAN_POINT('',(100.,80.,0.));
#13=CARTESIAN_POINT('',(0.,80.,0.));
#14=CARTESIAN_POINT('',(0.,0.,40.));
#15=CARTESIAN_POINT('',(100.,0.,40.));
#16=CARTESIAN_POINT('',(100.,80.,40.));
#17=CARTESIAN_POINT('',(0.,80.,40.));
/* 轴向方向 */
#20=DIRECTION('',(1.,0.,0.));
#21=DIRECTION('',(-1.,0.,0.));
#22=DIRECTION('',(0.,1.,0.));
#23=DIRECTION('',(0.,-1.,0.));
#24=DIRECTION('',(0.,0.,1.));
#25=DIRECTION('',(0.,0.,-1.));
/* 顶点 */
#30=VERTEX_POINT('',#10);
#31=VERTEX_POINT('',#11);
#32=VERTEX_POINT('',#12);
#33=VERTEX_POINT('',#13);
#34=VERTEX_POINT('',#14);
#35=VERTEX_POINT('',#15);
#36=VERTEX_POINT('',#16);
#37=VERTEX_POINT('',#17);
/* 边线（沿轴 LINE，幅值=边长）e0:p0->p1 e1:p1->p2 e2:p2->p3 e3:p3->p0 e4:p4->p5 e5:p5->p6 e6:p6->p7 e7:p7->p4 e8:p0->p4 e9:p1->p5 e10:p2->p6 e11:p3->p7 */
#40=LINE('',#10,VECTOR('',#20,100.));
#41=LINE('',#11,VECTOR('',#22,80.));
#42=LINE('',#12,VECTOR('',#21,100.));
#43=LINE('',#13,VECTOR('',#23,80.));
#44=LINE('',#14,VECTOR('',#20,100.));
#45=LINE('',#15,VECTOR('',#22,80.));
#46=LINE('',#16,VECTOR('',#21,100.));
#47=LINE('',#17,VECTOR('',#23,80.));
#48=LINE('',#10,VECTOR('',#24,40.));
#49=LINE('',#11,VECTOR('',#24,40.));
#50=LINE('',#12,VECTOR('',#24,40.));
#51=LINE('',#13,VECTOR('',#24,40.));
/* EDGE_CURVE（same_sense 全 T） */
#60=EDGE_CURVE('',#30,#31,#40,.T.);
#61=EDGE_CURVE('',#31,#32,#41,.T.);
#62=EDGE_CURVE('',#32,#33,#42,.T.);
#63=EDGE_CURVE('',#33,#30,#43,.T.);
#64=EDGE_CURVE('',#34,#35,#44,.T.);
#65=EDGE_CURVE('',#35,#36,#45,.T.);
#66=EDGE_CURVE('',#36,#37,#46,.T.);
#67=EDGE_CURVE('',#37,#34,#47,.T.);
#68=EDGE_CURVE('',#30,#34,#48,.T.);
#69=EDGE_CURVE('',#31,#35,#49,.T.);
#70=EDGE_CURVE('',#32,#36,#50,.T.);
#71=EDGE_CURVE('',#33,#37,#51,.T.);
/* 面放置: 底z0 n-Z 顶z40 n+Z 前y0 n-Y 后y80 n+Y 左x0 n-X 右x100 n+X */
#80=AXIS2_PLACEMENT_3D('',#10,#25,#20);
#81=AXIS2_PLACEMENT_3D('',#14,#24,#20);
#82=AXIS2_PLACEMENT_3D('',#10,#23,#20);
#83=AXIS2_PLACEMENT_3D('',#13,#22,#20);
#84=AXIS2_PLACEMENT_3D('',#10,#21,#22);
#85=AXIS2_PLACEMENT_3D('',#11,#20,#22);
#90=PLANE('',#80);
#91=PLANE('',#81);
#92=PLANE('',#82);
#93=PLANE('',#83);
#94=PLANE('',#84);
#95=PLANE('',#85);
/* 环（法向外 CCW，curl 逐面验算；ORIENTED_EDGE 起终点必填，sense=T 沿边定义向 / F 反向）
   底(z0):p3->p2->p1->p0  顶(z40):p4->p5->p6->p7  前(y0):p0->p1->p5->p4
   后(y80):p3->p2->p6->p7  左(x0):p0->p4->p7->p3  右(x100):p1->p2->p6->p5 */
#100=ORIENTED_EDGE('',#33,#30,#63,.T.);
#101=ORIENTED_EDGE('',#33,#32,#62,.F.);
#102=ORIENTED_EDGE('',#32,#31,#61,.F.);
#103=ORIENTED_EDGE('',#31,#30,#60,.F.);
#110=EDGE_LOOP('',(#100,#101,#102,#103));
#120=FACE_OUTER_BOUND('',#110,.T.);
#130=ADVANCED_FACE('',(#120),#90,.T.);
#140=ORIENTED_EDGE('',#34,#35,#64,.T.);
#141=ORIENTED_EDGE('',#35,#36,#65,.T.);
#142=ORIENTED_EDGE('',#36,#37,#66,.T.);
#143=ORIENTED_EDGE('',#37,#34,#67,.T.);
#150=EDGE_LOOP('',(#140,#141,#142,#143));
#160=FACE_OUTER_BOUND('',#150,.T.);
#170=ADVANCED_FACE('',(#160),#91,.T.);
#180=ORIENTED_EDGE('',#30,#31,#60,.T.);
#181=ORIENTED_EDGE('',#31,#35,#69,.T.);
#182=ORIENTED_EDGE('',#35,#34,#64,.F.);
#183=ORIENTED_EDGE('',#34,#30,#68,.F.);
#190=EDGE_LOOP('',(#180,#181,#182,#183));
#200=FACE_OUTER_BOUND('',#190,.T.);
#210=ADVANCED_FACE('',(#200),#92,.T.);
#220=ORIENTED_EDGE('',#33,#32,#62,.F.);
#221=ORIENTED_EDGE('',#32,#36,#70,.T.);
#222=ORIENTED_EDGE('',#36,#37,#66,.T.);
#223=ORIENTED_EDGE('',#37,#33,#71,.F.);
#230=EDGE_LOOP('',(#220,#221,#222,#223));
#240=FACE_OUTER_BOUND('',#230,.T.);
#250=ADVANCED_FACE('',(#240),#93,.T.);
#260=ORIENTED_EDGE('',#30,#34,#68,.T.);
#261=ORIENTED_EDGE('',#34,#37,#67,.F.);
#262=ORIENTED_EDGE('',#37,#33,#71,.F.);
#263=ORIENTED_EDGE('',#33,#30,#63,.T.);
#270=EDGE_LOOP('',(#260,#261,#262,#263));
#280=FACE_OUTER_BOUND('',#270,.T.);
#290=ADVANCED_FACE('',(#280),#94,.T.);
#300=ORIENTED_EDGE('',#31,#32,#61,.T.);
#301=ORIENTED_EDGE('',#32,#36,#70,.T.);
#302=ORIENTED_EDGE('',#36,#35,#65,.F.);
#303=ORIENTED_EDGE('',#35,#31,#69,.F.);
#310=EDGE_LOOP('',(#300,#301,#302,#303));
#320=FACE_OUTER_BOUND('',#310,.T.);
#330=ADVANCED_FACE('',(#320),#95,.T.);
/* 壳与体 */
#340=CLOSED_SHELL('',(#130,#170,#210,#250,#290,#330));
#350=MANIFOLD_SOLID_BREP('',#340);
/* 形状表达装配（product 结构） */
#360=PRODUCT_DEFINITION_SHAPE('','',#370);
#370=PRODUCT_DEFINITION('','',#380,#390);
#380=PRODUCT_DEFINITION_FORMATION_WITH_SPECIFIED_SOURCE('','',#400,.NOT_KNOWN.);
#390=PRODUCT_DEFINITION_CONTEXT('part definition',#410,'design');
#400=PRODUCT('probe-box','probe-box','',(#420));
#410=APPLICATION_CONTEXT('automotive_design');
#420=PRODUCT_CONTEXT('',#410,'mechanical');
#430=SHAPE_DEFINITION_REPRESENTATION(#360,#440);
#440=ADVANCED_BREP_SHAPE_REPRESENTATION('',(#350),#450);
#450=(GEOMETRIC_REPRESENTATION_CONTEXT(3)GLOBAL_UNCERTAINTY_ASSIGNED_CONTEXT((#460))GLOBAL_UNIT_ASSIGNED_CONTEXT((#470,#480,#490))REPRESENTATION_CONTEXT('',''));
#460=UNCERTAINTY_MEASURE_WITH_UNIT(LENGTH_MEASURE(0.001),#470,'distance_accuracy_value','confusion accuracy');
#470=(LENGTH_UNIT()NAMED_UNIT(*)SI_UNIT(.MILLI.,.METRE.));
#480=(NAMED_UNIT(*)PLANE_ANGLE_UNIT()SI_UNIT($,.RADIAN.));
#490=(NAMED_UNIT(*)SI_UNIT($,.STERADIAN.)SOLID_ANGLE_UNIT());
#500=PRODUCT_RELATED_PRODUCT_CATEGORY('part',$,(#400));
ENDSEC;
END-ISO-10303-21;
